<mxfile host="app.diagrams.net" modified="2024-07-06T03:54:47.756Z" agent="Mozilla/5.0 (Macintosh; Intel Mac OS X 10_15_7) AppleWebKit/537.36 (KHTML, like Gecko) Chrome/126.0.0.0 Safari/537.36" etag="RsTN5Nf04-q9WDd67qVA" version="24.6.4" type="github">
  <diagram name="Página-1" id="gXSekL606V-6FzGcRwmA">
    <mxGraphModel dx="2393" dy="591" grid="0" gridSize="10" guides="1" tooltips="1" connect="1" arrows="1" fold="1" page="0" pageScale="1" pageWidth="827" pageHeight="1169" math="0" shadow="0">
      <root>
        <mxCell id="0" />
        <mxCell id="1" parent="0" />
        <mxCell id="Dx4xEf_XMYI6rqRvy_fV-3" value="" style="rounded=0;whiteSpace=wrap;html=1;fillColor=none;strokeColor=#FF8000;" parent="1" vertex="1">
          <mxGeometry x="38" y="798" width="1364" height="836" as="geometry" />
        </mxCell>
        <mxCell id="Dx4xEf_XMYI6rqRvy_fV-6" value="" style="rounded=0;whiteSpace=wrap;html=1;fillColor=none;strokeColor=#CC0066;" parent="1" vertex="1">
          <mxGeometry x="97" y="854" width="1257" height="723" as="geometry" />
        </mxCell>
        <mxCell id="Dx4xEf_XMYI6rqRvy_fV-1" value="" style="outlineConnect=0;dashed=0;verticalLabelPosition=bottom;verticalAlign=top;align=center;html=1;shape=mxgraph.aws3.cloud_2;fillColor=#F58534;gradientColor=none;" parent="1" vertex="1">
          <mxGeometry x="38" y="798" width="40" height="40" as="geometry" />
        </mxCell>
        <mxCell id="Dx4xEf_XMYI6rqRvy_fV-4" value="&lt;font color=&quot;#ff8000&quot;&gt;Nuvem AWS&lt;/font&gt;" style="text;html=1;align=center;verticalAlign=middle;whiteSpace=wrap;rounded=0;" parent="1" vertex="1">
          <mxGeometry x="67" y="803" width="109" height="30" as="geometry" />
        </mxCell>
        <mxCell id="Dx4xEf_XMYI6rqRvy_fV-5" value="" style="sketch=0;outlineConnect=0;fontColor=#232F3E;gradientColor=none;fillColor=#E7157B;strokeColor=none;dashed=0;verticalLabelPosition=bottom;verticalAlign=top;align=center;html=1;fontSize=12;fontStyle=0;aspect=fixed;pointerEvents=1;shape=mxgraph.aws4.organizations_account2;" parent="1" vertex="1">
          <mxGeometry x="97" y="854" width="30" height="30" as="geometry" />
        </mxCell>
        <mxCell id="Dx4xEf_XMYI6rqRvy_fV-7" value="&lt;font color=&quot;#cc0066&quot;&gt;Conta AWS&lt;/font&gt;" style="text;html=1;align=center;verticalAlign=middle;whiteSpace=wrap;rounded=0;" parent="1" vertex="1">
          <mxGeometry x="117" y="854" width="109" height="30" as="geometry" />
        </mxCell>
        <mxCell id="Dx4xEf_XMYI6rqRvy_fV-8" value="Região sa-east-1 (São Paulo)" style="points=[[0,0],[0.25,0],[0.5,0],[0.75,0],[1,0],[1,0.25],[1,0.5],[1,0.75],[1,1],[0.75,1],[0.5,1],[0.25,1],[0,1],[0,0.75],[0,0.5],[0,0.25]];outlineConnect=0;gradientColor=none;html=1;whiteSpace=wrap;fontSize=12;fontStyle=0;container=1;pointerEvents=0;collapsible=0;recursiveResize=0;shape=mxgraph.aws4.group;grIcon=mxgraph.aws4.group_region;strokeColor=#00A4A6;fillColor=none;verticalAlign=top;align=left;spacingLeft=30;fontColor=#147EBA;dashed=1;" parent="1" vertex="1">
          <mxGeometry x="353" y="901" width="949" height="635" as="geometry" />
        </mxCell>
        <mxCell id="Dx4xEf_XMYI6rqRvy_fV-9" value="Zona de disponibilidade (sa-east-1a)" style="sketch=0;outlineConnect=0;gradientColor=none;html=1;whiteSpace=wrap;fontSize=12;fontStyle=0;shape=mxgraph.aws4.group;grIcon=mxgraph.aws4.group_availability_zone;strokeColor=#545B64;fillColor=none;verticalAlign=top;align=center;spacingLeft=30;fontColor=#545B64;dashed=1;" parent="Dx4xEf_XMYI6rqRvy_fV-8" vertex="1">
          <mxGeometry x="20" y="78" width="697" height="130" as="geometry" />
        </mxCell>
        <mxCell id="Dx4xEf_XMYI6rqRvy_fV-10" value="Zona de disponibilidade (sa-east-1b)" style="sketch=0;outlineConnect=0;gradientColor=none;html=1;whiteSpace=wrap;fontSize=12;fontStyle=0;shape=mxgraph.aws4.group;grIcon=mxgraph.aws4.group_availability_zone;strokeColor=#545B64;fillColor=none;verticalAlign=top;align=center;spacingLeft=30;fontColor=#545B64;dashed=1;" parent="Dx4xEf_XMYI6rqRvy_fV-8" vertex="1">
          <mxGeometry x="19" y="224" width="698" height="130" as="geometry" />
        </mxCell>
        <mxCell id="Dx4xEf_XMYI6rqRvy_fV-11" value="Zona de disponibilidade (sa-east-1c)" style="sketch=0;outlineConnect=0;gradientColor=none;html=1;whiteSpace=wrap;fontSize=12;fontStyle=0;shape=mxgraph.aws4.group;grIcon=mxgraph.aws4.group_availability_zone;strokeColor=#545B64;fillColor=none;verticalAlign=top;align=center;spacingLeft=30;fontColor=#545B64;dashed=1;" parent="Dx4xEf_XMYI6rqRvy_fV-8" vertex="1">
          <mxGeometry x="19" y="373" width="700" height="184" as="geometry" />
        </mxCell>
        <mxCell id="Dx4xEf_XMYI6rqRvy_fV-13" value="Private subnet" style="points=[[0,0],[0.25,0],[0.5,0],[0.75,0],[1,0],[1,0.25],[1,0.5],[1,0.75],[1,1],[0.75,1],[0.5,1],[0.25,1],[0,1],[0,0.75],[0,0.5],[0,0.25]];outlineConnect=0;gradientColor=none;html=1;whiteSpace=wrap;fontSize=12;fontStyle=0;container=1;pointerEvents=0;collapsible=0;recursiveResize=0;shape=mxgraph.aws4.group;grIcon=mxgraph.aws4.group_security_group;grStroke=0;strokeColor=#00A4A6;fillColor=#E6F6F7;verticalAlign=top;align=left;spacingLeft=30;fontColor=#147EBA;dashed=0;" parent="Dx4xEf_XMYI6rqRvy_fV-8" vertex="1">
          <mxGeometry x="420" y="104" width="230" height="90" as="geometry" />
        </mxCell>
        <mxCell id="Dx4xEf_XMYI6rqRvy_fV-15" value="Private subnet" style="points=[[0,0],[0.25,0],[0.5,0],[0.75,0],[1,0],[1,0.25],[1,0.5],[1,0.75],[1,1],[0.75,1],[0.5,1],[0.25,1],[0,1],[0,0.75],[0,0.5],[0,0.25]];outlineConnect=0;gradientColor=none;html=1;whiteSpace=wrap;fontSize=12;fontStyle=0;container=1;pointerEvents=0;collapsible=0;recursiveResize=0;shape=mxgraph.aws4.group;grIcon=mxgraph.aws4.group_security_group;grStroke=0;strokeColor=#00A4A6;fillColor=#E6F6F7;verticalAlign=top;align=left;spacingLeft=30;fontColor=#147EBA;dashed=0;" parent="Dx4xEf_XMYI6rqRvy_fV-8" vertex="1">
          <mxGeometry x="420" y="251" width="230" height="90" as="geometry" />
        </mxCell>
        <mxCell id="Dx4xEf_XMYI6rqRvy_fV-16" value="Sub-rede pública" style="points=[[0,0],[0.25,0],[0.5,0],[0.75,0],[1,0],[1,0.25],[1,0.5],[1,0.75],[1,1],[0.75,1],[0.5,1],[0.25,1],[0,1],[0,0.75],[0,0.5],[0,0.25]];outlineConnect=0;gradientColor=none;html=1;whiteSpace=wrap;fontSize=12;fontStyle=0;container=1;pointerEvents=0;collapsible=0;recursiveResize=0;shape=mxgraph.aws4.group;grIcon=mxgraph.aws4.group_security_group;grStroke=0;strokeColor=#7AA116;fillColor=#F2F6E8;verticalAlign=top;align=left;spacingLeft=30;fontColor=#248814;dashed=0;" parent="Dx4xEf_XMYI6rqRvy_fV-8" vertex="1">
          <mxGeometry x="107" y="405" width="295" height="122" as="geometry" />
        </mxCell>
        <mxCell id="Dx4xEf_XMYI6rqRvy_fV-40" value="&lt;font style=&quot;font-size: 10px;&quot;&gt;Facelabs&lt;/font&gt;" style="text;html=1;align=center;verticalAlign=middle;whiteSpace=wrap;rounded=0;" parent="Dx4xEf_XMYI6rqRvy_fV-16" vertex="1">
          <mxGeometry x="78" y="77" width="44" height="14" as="geometry" />
        </mxCell>
        <mxCell id="Dx4xEf_XMYI6rqRvy_fV-42" value="&lt;span style=&quot;font-size: 11px;&quot;&gt;Zabbix&lt;/span&gt;" style="text;html=1;align=center;verticalAlign=middle;whiteSpace=wrap;rounded=0;" parent="Dx4xEf_XMYI6rqRvy_fV-16" vertex="1">
          <mxGeometry x="176" y="77" width="44" height="14" as="geometry" />
        </mxCell>
        <mxCell id="Dx4xEf_XMYI6rqRvy_fV-19" value="" style="sketch=0;points=[[0,0,0],[0.25,0,0],[0.5,0,0],[0.75,0,0],[1,0,0],[0,1,0],[0.25,1,0],[0.5,1,0],[0.75,1,0],[1,1,0],[0,0.25,0],[0,0.5,0],[0,0.75,0],[1,0.25,0],[1,0.5,0],[1,0.75,0]];outlineConnect=0;fontColor=#232F3E;fillColor=#ED7100;strokeColor=#ffffff;dashed=0;verticalLabelPosition=bottom;verticalAlign=top;align=center;html=1;fontSize=12;fontStyle=0;aspect=fixed;shape=mxgraph.aws4.resourceIcon;resIcon=mxgraph.aws4.ec2;" parent="Dx4xEf_XMYI6rqRvy_fV-16" vertex="1">
          <mxGeometry x="82" y="30" width="40" height="40" as="geometry" />
        </mxCell>
        <mxCell id="Dx4xEf_XMYI6rqRvy_fV-20" value="" style="sketch=0;points=[[0,0,0],[0.25,0,0],[0.5,0,0],[0.75,0,0],[1,0,0],[0,1,0],[0.25,1,0],[0.5,1,0],[0.75,1,0],[1,1,0],[0,0.25,0],[0,0.5,0],[0,0.75,0],[1,0.25,0],[1,0.5,0],[1,0.75,0]];outlineConnect=0;fontColor=#232F3E;fillColor=#ED7100;strokeColor=#ffffff;dashed=0;verticalLabelPosition=bottom;verticalAlign=top;align=center;html=1;fontSize=12;fontStyle=0;aspect=fixed;shape=mxgraph.aws4.resourceIcon;resIcon=mxgraph.aws4.ec2;" parent="Dx4xEf_XMYI6rqRvy_fV-16" vertex="1">
          <mxGeometry x="130" y="30" width="40" height="40" as="geometry" />
        </mxCell>
        <mxCell id="Dx4xEf_XMYI6rqRvy_fV-24" value="&lt;font style=&quot;font-size: 10px;&quot;&gt;Mikrotik&lt;/font&gt;" style="text;html=1;align=center;verticalAlign=middle;whiteSpace=wrap;rounded=0;" parent="Dx4xEf_XMYI6rqRvy_fV-16" vertex="1">
          <mxGeometry x="30" y="77" width="44" height="14" as="geometry" />
        </mxCell>
        <mxCell id="Dx4xEf_XMYI6rqRvy_fV-17" value="Private subnet" style="points=[[0,0],[0.25,0],[0.5,0],[0.75,0],[1,0],[1,0.25],[1,0.5],[1,0.75],[1,1],[0.75,1],[0.5,1],[0.25,1],[0,1],[0,0.75],[0,0.5],[0,0.25]];outlineConnect=0;gradientColor=none;html=1;whiteSpace=wrap;fontSize=12;fontStyle=0;container=1;pointerEvents=0;collapsible=0;recursiveResize=0;shape=mxgraph.aws4.group;grIcon=mxgraph.aws4.group_security_group;grStroke=0;strokeColor=#00A4A6;fillColor=#E6F6F7;verticalAlign=top;align=left;spacingLeft=30;fontColor=#147EBA;dashed=0;" parent="Dx4xEf_XMYI6rqRvy_fV-8" vertex="1">
          <mxGeometry x="420" y="405" width="230" height="122" as="geometry" />
        </mxCell>
        <mxCell id="Dx4xEf_XMYI6rqRvy_fV-18" value="" style="sketch=0;points=[[0,0,0],[0.25,0,0],[0.5,0,0],[0.75,0,0],[1,0,0],[0,1,0],[0.25,1,0],[0.5,1,0],[0.75,1,0],[1,1,0],[0,0.25,0],[0,0.5,0],[0,0.75,0],[1,0.25,0],[1,0.5,0],[1,0.75,0]];outlineConnect=0;fontColor=#232F3E;fillColor=#ED7100;strokeColor=#ffffff;dashed=0;verticalLabelPosition=bottom;verticalAlign=top;align=center;html=1;fontSize=12;fontStyle=0;aspect=fixed;shape=mxgraph.aws4.resourceIcon;resIcon=mxgraph.aws4.ec2;" parent="Dx4xEf_XMYI6rqRvy_fV-8" vertex="1">
          <mxGeometry x="141" y="436" width="40" height="40" as="geometry" />
        </mxCell>
        <mxCell id="Dx4xEf_XMYI6rqRvy_fV-21" value="" style="sketch=0;points=[[0,0,0],[0.25,0,0],[0.5,0,0],[0.75,0,0],[1,0,0],[0,1,0],[0.25,1,0],[0.5,1,0],[0.75,1,0],[1,1,0],[0,0.25,0],[0,0.5,0],[0,0.75,0],[1,0.25,0],[1,0.5,0],[1,0.75,0]];outlineConnect=0;fontColor=#232F3E;fillColor=#ED7100;strokeColor=#ffffff;dashed=0;verticalLabelPosition=bottom;verticalAlign=top;align=center;html=1;fontSize=12;fontStyle=0;aspect=fixed;shape=mxgraph.aws4.resourceIcon;resIcon=mxgraph.aws4.ec2;" parent="Dx4xEf_XMYI6rqRvy_fV-8" vertex="1">
          <mxGeometry x="285" y="436" width="40" height="40" as="geometry" />
        </mxCell>
        <mxCell id="Dx4xEf_XMYI6rqRvy_fV-41" value="&lt;font style=&quot;font-size: 11px;&quot;&gt;Facelabs&lt;/font&gt;&lt;div style=&quot;font-size: 11px;&quot;&gt;&lt;font style=&quot;font-size: 11px;&quot;&gt;Stream&lt;/font&gt;&lt;/div&gt;" style="text;html=1;align=center;verticalAlign=middle;whiteSpace=wrap;rounded=0;" parent="Dx4xEf_XMYI6rqRvy_fV-8" vertex="1">
          <mxGeometry x="234" y="488" width="44" height="14" as="geometry" />
        </mxCell>
        <mxCell id="Dx4xEf_XMYI6rqRvy_fV-44" value="&lt;font color=&quot;#6666ff&quot;&gt;VPC 172.31.0.0/16&lt;/font&gt;" style="points=[[0,0],[0.25,0],[0.5,0],[0.75,0],[1,0],[1,0.25],[1,0.5],[1,0.75],[1,1],[0.75,1],[0.5,1],[0.25,1],[0,1],[0,0.75],[0,0.5],[0,0.25]];outlineConnect=0;gradientColor=none;html=1;whiteSpace=wrap;fontSize=12;fontStyle=0;container=1;pointerEvents=0;collapsible=0;recursiveResize=0;shape=mxgraph.aws4.group;grIcon=mxgraph.aws4.group_vpc2;strokeColor=#6666FF;fillColor=none;verticalAlign=top;align=left;spacingLeft=30;fontColor=#AAB7B8;dashed=0;" parent="Dx4xEf_XMYI6rqRvy_fV-8" vertex="1">
          <mxGeometry x="55" y="37" width="619" height="563" as="geometry" />
        </mxCell>
        <mxCell id="Dx4xEf_XMYI6rqRvy_fV-14" value="Sub-rede pública" style="points=[[0,0],[0.25,0],[0.5,0],[0.75,0],[1,0],[1,0.25],[1,0.5],[1,0.75],[1,1],[0.75,1],[0.5,1],[0.25,1],[0,1],[0,0.75],[0,0.5],[0,0.25]];outlineConnect=0;gradientColor=none;html=1;whiteSpace=wrap;fontSize=12;fontStyle=0;container=1;pointerEvents=0;collapsible=0;recursiveResize=0;shape=mxgraph.aws4.group;grIcon=mxgraph.aws4.group_security_group;grStroke=0;strokeColor=#7AA116;fillColor=#F2F6E8;verticalAlign=top;align=left;spacingLeft=30;fontColor=#248814;dashed=0;" parent="Dx4xEf_XMYI6rqRvy_fV-44" vertex="1">
          <mxGeometry x="52" y="214" width="295" height="90" as="geometry" />
        </mxCell>
        <mxCell id="Dx4xEf_XMYI6rqRvy_fV-12" value="Sub-rede pública" style="points=[[0,0],[0.25,0],[0.5,0],[0.75,0],[1,0],[1,0.25],[1,0.5],[1,0.75],[1,1],[0.75,1],[0.5,1],[0.25,1],[0,1],[0,0.75],[0,0.5],[0,0.25]];outlineConnect=0;gradientColor=none;html=1;whiteSpace=wrap;fontSize=12;fontStyle=0;container=1;pointerEvents=0;collapsible=0;recursiveResize=0;shape=mxgraph.aws4.group;grIcon=mxgraph.aws4.group_security_group;grStroke=0;strokeColor=#7AA116;fillColor=#F2F6E8;verticalAlign=top;align=left;spacingLeft=30;fontColor=#248814;dashed=0;" parent="Dx4xEf_XMYI6rqRvy_fV-44" vertex="1">
          <mxGeometry x="52" y="67" width="295" height="90" as="geometry" />
        </mxCell>
        <mxCell id="NzC5DU63O_x284sXSKjy-30" value="" style="sketch=0;points=[[0,0,0],[0.25,0,0],[0.5,0,0],[0.75,0,0],[1,0,0],[0,1,0],[0.25,1,0],[0.5,1,0],[0.75,1,0],[1,1,0],[0,0.25,0],[0,0.5,0],[0,0.75,0],[1,0.25,0],[1,0.5,0],[1,0.75,0]];outlineConnect=0;fontColor=#232F3E;fillColor=#66B2FF;strokeColor=#ffffff;dashed=0;verticalLabelPosition=bottom;verticalAlign=top;align=center;html=1;fontSize=12;fontStyle=0;aspect=fixed;shape=mxgraph.aws4.resourceIcon;resIcon=mxgraph.aws4.rds;" vertex="1" parent="Dx4xEf_XMYI6rqRvy_fV-44">
          <mxGeometry x="278" y="399" width="40" height="40" as="geometry" />
        </mxCell>
        <mxCell id="NzC5DU63O_x284sXSKjy-31" value="&lt;span style=&quot;font-size: 11px;&quot;&gt;facelabs-production&lt;/span&gt;" style="text;html=1;align=center;verticalAlign=middle;whiteSpace=wrap;rounded=0;" vertex="1" parent="Dx4xEf_XMYI6rqRvy_fV-44">
          <mxGeometry x="276" y="451" width="44" height="14" as="geometry" />
        </mxCell>
        <mxCell id="Dx4xEf_XMYI6rqRvy_fV-46" value="" style="sketch=0;points=[[0,0,0],[0.25,0,0],[0.5,0,0],[0.75,0,0],[1,0,0],[0,1,0],[0.25,1,0],[0.5,1,0],[0.75,1,0],[1,1,0],[0,0.25,0],[0,0.5,0],[0,0.75,0],[1,0.25,0],[1,0.5,0],[1,0.75,0]];outlineConnect=0;fontColor=#232F3E;fillColor=#7AA116;strokeColor=#ffffff;dashed=0;verticalLabelPosition=bottom;verticalAlign=top;align=center;html=1;fontSize=12;fontStyle=0;aspect=fixed;shape=mxgraph.aws4.resourceIcon;resIcon=mxgraph.aws4.s3;" parent="Dx4xEf_XMYI6rqRvy_fV-8" vertex="1">
          <mxGeometry x="754" y="475" width="40" height="40" as="geometry" />
        </mxCell>
        <mxCell id="Dx4xEf_XMYI6rqRvy_fV-47" value="" style="sketch=0;points=[[0,0,0],[0.25,0,0],[0.5,0,0],[0.75,0,0],[1,0,0],[0,1,0],[0.25,1,0],[0.5,1,0],[0.75,1,0],[1,1,0],[0,0.25,0],[0,0.5,0],[0,0.75,0],[1,0.25,0],[1,0.5,0],[1,0.75,0]];outlineConnect=0;fontColor=#232F3E;fillColor=#7AA116;strokeColor=#ffffff;dashed=0;verticalLabelPosition=bottom;verticalAlign=top;align=center;html=1;fontSize=12;fontStyle=0;aspect=fixed;shape=mxgraph.aws4.resourceIcon;resIcon=mxgraph.aws4.s3;" parent="Dx4xEf_XMYI6rqRvy_fV-8" vertex="1">
          <mxGeometry x="853" y="475" width="40" height="40" as="geometry" />
        </mxCell>
        <mxCell id="NzC5DU63O_x284sXSKjy-1" value="&lt;font style=&quot;font-size: 10px;&quot;&gt;facelabs-files-production&lt;/font&gt;" style="text;html=1;align=center;verticalAlign=middle;whiteSpace=wrap;rounded=0;" vertex="1" parent="Dx4xEf_XMYI6rqRvy_fV-8">
          <mxGeometry x="738" y="525" width="72" height="14" as="geometry" />
        </mxCell>
        <mxCell id="NzC5DU63O_x284sXSKjy-26" value="&lt;font style=&quot;font-size: 10px;&quot;&gt;facelabs-web-production&lt;/font&gt;" style="text;html=1;align=center;verticalAlign=middle;whiteSpace=wrap;rounded=0;" vertex="1" parent="Dx4xEf_XMYI6rqRvy_fV-8">
          <mxGeometry x="837" y="443" width="72" height="14" as="geometry" />
        </mxCell>
        <mxCell id="NzC5DU63O_x284sXSKjy-2" value="&lt;font style=&quot;font-size: 10px;&quot;&gt;facelabs-files-staging&lt;/font&gt;" style="text;html=1;align=center;verticalAlign=middle;whiteSpace=wrap;rounded=0;" vertex="1" parent="Dx4xEf_XMYI6rqRvy_fV-8">
          <mxGeometry x="837" y="525" width="72" height="14" as="geometry" />
        </mxCell>
        <mxCell id="Dx4xEf_XMYI6rqRvy_fV-43" value="" style="sketch=0;points=[[0,0,0],[0.25,0,0],[0.5,0,0],[0.75,0,0],[1,0,0],[0,1,0],[0.25,1,0],[0.5,1,0],[0.75,1,0],[1,1,0],[0,0.25,0],[0,0.5,0],[0,0.75,0],[1,0.25,0],[1,0.5,0],[1,0.75,0]];outlineConnect=0;fontColor=#232F3E;fillColor=#7AA116;strokeColor=#ffffff;dashed=0;verticalLabelPosition=bottom;verticalAlign=top;align=center;html=1;fontSize=12;fontStyle=0;aspect=fixed;shape=mxgraph.aws4.resourceIcon;resIcon=mxgraph.aws4.s3;" parent="1" vertex="1">
          <mxGeometry x="1107" y="1297" width="40" height="40" as="geometry" />
        </mxCell>
        <mxCell id="Dx4xEf_XMYI6rqRvy_fV-45" value="" style="sketch=0;points=[[0,0,0],[0.25,0,0],[0.5,0,0],[0.75,0,0],[1,0,0],[0,1,0],[0.25,1,0],[0.5,1,0],[0.75,1,0],[1,1,0],[0,0.25,0],[0,0.5,0],[0,0.75,0],[1,0.25,0],[1,0.5,0],[1,0.75,0]];outlineConnect=0;fontColor=#232F3E;fillColor=#7AA116;strokeColor=#ffffff;dashed=0;verticalLabelPosition=bottom;verticalAlign=top;align=center;html=1;fontSize=12;fontStyle=0;aspect=fixed;shape=mxgraph.aws4.resourceIcon;resIcon=mxgraph.aws4.s3;" parent="1" vertex="1">
          <mxGeometry x="1207" y="1297" width="40" height="40" as="geometry" />
        </mxCell>
        <mxCell id="NzC5DU63O_x284sXSKjy-25" value="&lt;font style=&quot;font-size: 10px;&quot;&gt;facelabs-web-production&lt;/font&gt;" style="text;html=1;align=center;verticalAlign=middle;whiteSpace=wrap;rounded=0;" vertex="1" parent="1">
          <mxGeometry x="1091" y="1347" width="72" height="14" as="geometry" />
        </mxCell>
        <mxCell id="NzC5DU63O_x284sXSKjy-33" value="" style="group" vertex="1" connectable="0" parent="1">
          <mxGeometry x="-67" y="1133" width="60" height="80" as="geometry" />
        </mxCell>
        <mxCell id="Dx4xEf_XMYI6rqRvy_fV-22" value="" style="verticalLabelPosition=bottom;html=1;verticalAlign=top;align=center;strokeColor=none;fillColor=#6666FF;shape=mxgraph.azure.user;" parent="NzC5DU63O_x284sXSKjy-33" vertex="1">
          <mxGeometry x="3.25" width="47.5" height="50" as="geometry" />
        </mxCell>
        <mxCell id="Dx4xEf_XMYI6rqRvy_fV-23" value="Usuário" style="text;html=1;align=center;verticalAlign=middle;whiteSpace=wrap;rounded=0;" parent="NzC5DU63O_x284sXSKjy-33" vertex="1">
          <mxGeometry y="50" width="60" height="30" as="geometry" />
        </mxCell>
        <mxCell id="NzC5DU63O_x284sXSKjy-34" value="" style="sketch=0;points=[[0,0,0],[0.25,0,0],[0.5,0,0],[0.75,0,0],[1,0,0],[0,1,0],[0.25,1,0],[0.5,1,0],[0.75,1,0],[1,1,0],[0,0.25,0],[0,0.5,0],[0,0.75,0],[1,0.25,0],[1,0.5,0],[1,0.75,0]];outlineConnect=0;fontColor=#232F3E;fillColor=#8C4FFF;strokeColor=#ffffff;dashed=0;verticalLabelPosition=bottom;verticalAlign=top;align=center;html=1;fontSize=12;fontStyle=0;aspect=fixed;shape=mxgraph.aws4.resourceIcon;resIcon=mxgraph.aws4.cloudfront;" vertex="1" parent="1">
          <mxGeometry x="217" y="1060" width="40" height="40" as="geometry" />
        </mxCell>
        <mxCell id="NzC5DU63O_x284sXSKjy-35" value="" style="sketch=0;points=[[0,0,0],[0.25,0,0],[0.5,0,0],[0.75,0,0],[1,0,0],[0,1,0],[0.25,1,0],[0.5,1,0],[0.75,1,0],[1,1,0],[0,0.25,0],[0,0.5,0],[0,0.75,0],[1,0.25,0],[1,0.5,0],[1,0.75,0]];outlineConnect=0;fontColor=#232F3E;fillColor=#8C4FFF;strokeColor=#ffffff;dashed=0;verticalLabelPosition=bottom;verticalAlign=top;align=center;html=1;fontSize=12;fontStyle=0;aspect=fixed;shape=mxgraph.aws4.resourceIcon;resIcon=mxgraph.aws4.cloudfront;" vertex="1" parent="1">
          <mxGeometry x="217" y="1162" width="40" height="40" as="geometry" />
        </mxCell>
        <mxCell id="NzC5DU63O_x284sXSKjy-36" value="" style="sketch=0;points=[[0,0,0],[0.25,0,0],[0.5,0,0],[0.75,0,0],[1,0,0],[0,1,0],[0.25,1,0],[0.5,1,0],[0.75,1,0],[1,1,0],[0,0.25,0],[0,0.5,0],[0,0.75,0],[1,0.25,0],[1,0.5,0],[1,0.75,0]];outlineConnect=0;fontColor=#232F3E;fillColor=#8C4FFF;strokeColor=#ffffff;dashed=0;verticalLabelPosition=bottom;verticalAlign=top;align=center;html=1;fontSize=12;fontStyle=0;aspect=fixed;shape=mxgraph.aws4.resourceIcon;resIcon=mxgraph.aws4.cloudfront;" vertex="1" parent="1">
          <mxGeometry x="217" y="1264" width="40" height="40" as="geometry" />
        </mxCell>
        <mxCell id="NzC5DU63O_x284sXSKjy-37" value="" style="sketch=0;points=[[0,0,0],[0.25,0,0],[0.5,0,0],[0.75,0,0],[1,0,0],[0,1,0],[0.25,1,0],[0.5,1,0],[0.75,1,0],[1,1,0],[0,0.25,0],[0,0.5,0],[0,0.75,0],[1,0.25,0],[1,0.5,0],[1,0.75,0]];outlineConnect=0;fontColor=#232F3E;fillColor=#ED7100;strokeColor=#ffffff;dashed=0;verticalLabelPosition=bottom;verticalAlign=top;align=center;html=1;fontSize=12;fontStyle=0;aspect=fixed;shape=mxgraph.aws4.resourceIcon;resIcon=mxgraph.aws4.elastic_beanstalk;" vertex="1" parent="1">
          <mxGeometry x="285" y="1162" width="40" height="40" as="geometry" />
        </mxCell>
        <mxCell id="NzC5DU63O_x284sXSKjy-38" value="" style="sketch=0;outlineConnect=0;fontColor=#232F3E;gradientColor=none;fillColor=#8C4FFF;strokeColor=none;dashed=0;verticalLabelPosition=bottom;verticalAlign=top;align=center;html=1;fontSize=12;fontStyle=0;aspect=fixed;pointerEvents=1;shape=mxgraph.aws4.application_load_balancer;" vertex="1" parent="1">
          <mxGeometry x="285" y="1231" width="40" height="40" as="geometry" />
        </mxCell>
        <mxCell id="NzC5DU63O_x284sXSKjy-39" value="" style="sketch=0;outlineConnect=0;fontColor=#232F3E;gradientColor=none;fillColor=#8C4FFF;strokeColor=none;dashed=0;verticalLabelPosition=bottom;verticalAlign=top;align=center;html=1;fontSize=12;fontStyle=0;aspect=fixed;pointerEvents=1;shape=mxgraph.aws4.application_load_balancer;" vertex="1" parent="1">
          <mxGeometry x="285" y="1290" width="40" height="40" as="geometry" />
        </mxCell>
        <mxCell id="NzC5DU63O_x284sXSKjy-40" value="" style="sketch=0;points=[[0,0,0],[0.25,0,0],[0.5,0,0],[0.75,0,0],[1,0,0],[0,1,0],[0.25,1,0],[0.5,1,0],[0.75,1,0],[1,1,0],[0,0.25,0],[0,0.5,0],[0,0.75,0],[1,0.25,0],[1,0.5,0],[1,0.75,0]];points=[[0,0,0],[0.25,0,0],[0.5,0,0],[0.75,0,0],[1,0,0],[0,1,0],[0.25,1,0],[0.5,1,0],[0.75,1,0],[1,1,0],[0,0.25,0],[0,0.5,0],[0,0.75,0],[1,0.25,0],[1,0.5,0],[1,0.75,0]];outlineConnect=0;fontColor=#232F3E;fillColor=#E7157B;strokeColor=#ffffff;dashed=0;verticalLabelPosition=bottom;verticalAlign=top;align=center;html=1;fontSize=12;fontStyle=0;aspect=fixed;shape=mxgraph.aws4.resourceIcon;resIcon=mxgraph.aws4.cloudwatch_2;" vertex="1" parent="1">
          <mxGeometry x="217" y="1353" width="40" height="40" as="geometry" />
        </mxCell>
      </root>
    </mxGraphModel>
  </diagram>
</mxfile>
